<svg width="313" height="316" viewBox="0 0 313 316" fill="none" xmlns="http://www.w3.org/2000/svg">
<path d="M141.396 127.881L156.326 151.935L171.256 127.881L156.326 103.827L141.396 127.881Z" fill="black"/>
<path d="M24.5123 11.6876V12.7523L7.94308 0L0 10.3176L24.5123 29.1849V150.959C24.5123 241.615 98.266 315.369 188.922 315.369H288.136V29.4139L312.946 10.3176L305.003 0L288.136 12.9853V11.6916H24.5123V11.6876ZM223.611 105.357C239.694 105.357 252.728 92.3237 252.728 76.2407C252.728 70.3547 250.992 64.9147 247.955 60.3505L261.318 50.0651C266.67 57.7751 269.518 66.7789 269.518 76.2407C269.518 101.552 248.927 122.147 223.611 122.147C210.084 122.147 197.376 116.137 188.729 105.936L202.04 95.6906C207.36 101.597 215.014 105.357 223.611 105.357ZM210.775 88.9649L239.449 66.8914C240.88 69.5029 241.772 72.46 241.772 75.642C241.772 85.7989 233.567 94.0473 223.411 94.0473C218.513 94.0473 214.077 92.1027 210.775 88.9649ZM89.3385 105.357C97.9325 105.357 105.59 101.597 110.91 95.6906L124.221 105.936C115.578 116.141 102.87 122.147 89.3385 122.147C64.0267 122.147 43.4358 101.556 43.4358 76.2407C43.4358 66.7789 46.2884 57.7751 51.636 50.0611L65.0031 60.3505C61.9656 64.9147 60.23 70.3547 60.23 76.2407C60.2219 92.3237 73.2555 105.357 89.3385 105.357ZM71.1783 75.642C71.1783 72.46 72.0662 69.5029 73.5006 66.8914L102.175 88.9649C98.8726 92.1027 94.433 94.0473 89.5394 94.0473C79.3826 94.0513 71.1783 85.8029 71.1783 75.642ZM270.772 298.004H204.587V230.679C204.587 195.925 232.86 167.648 267.618 167.648H270.776L270.772 298.004ZM270.772 154.623H267.614C225.677 154.623 191.558 188.741 191.558 230.679V298.004H188.922C107.84 298.004 41.8769 232.041 41.8769 150.959V111.026C52.6123 125.631 69.8605 135.165 89.3345 135.165C106.92 135.165 123.409 127.25 134.518 113.859L138.66 117.049L139.223 117.483L147.166 107.165L145.563 105.932L45.6898 29.0523H267.264L167.186 106.084L165.784 107.161L173.727 117.479L174.089 117.202L178.432 113.859C189.541 127.25 206.03 135.165 223.611 135.165C242.909 135.165 260.016 125.8 270.772 111.424V154.623Z" fill="black"/>
</svg>
