<svg width="123" height="123" viewBox="0 0 123 123" fill="none" xmlns="http://www.w3.org/2000/svg">
<path d="M85.5968 32.595C84.4786 32.595 83.4161 32.8186 82.438 33.21C83.3325 33.8809 83.9193 34.9152 83.9193 36.0893C83.9193 38.0182 82.3539 39.5836 80.425 39.5836C79.2511 39.5836 78.2168 38.9966 77.5459 38.102C77.1545 39.0805 76.9307 40.1427 76.9307 41.2609C76.9307 46.0411 80.8166 49.8989 85.5968 49.8989C90.3491 49.8989 94.2345 46.0411 94.2345 41.2609C94.2345 36.4807 90.3491 32.595 85.5968 32.595ZM85.5968 32.595C84.4786 32.595 83.4161 32.8186 82.438 33.21C83.3325 33.8809 83.9193 34.9152 83.9193 36.0893C83.9193 38.0182 82.3539 39.5836 80.425 39.5836C79.2511 39.5836 78.2168 38.9966 77.5459 38.102C77.1545 39.0805 76.9307 40.1427 76.9307 41.2609C76.9307 46.0411 80.8166 49.8989 85.5968 49.8989C90.3491 49.8989 94.2345 46.0411 94.2345 41.2609C94.2345 36.4807 90.3491 32.595 85.5968 32.595ZM37.4311 32.595C36.313 32.595 35.2227 32.8186 34.2443 33.21C35.1389 33.853 35.7539 34.9152 35.7539 36.0893C35.7539 38.0182 34.1605 39.5836 32.2595 39.5836C31.0575 39.5836 29.9952 38.9966 29.3802 38.0741C28.9609 39.0525 28.7373 40.1427 28.7373 41.2609C28.7373 46.0411 32.623 49.8989 37.4311 49.8989C42.1832 49.8989 46.0691 46.0411 46.0691 41.2609C46.0691 36.4807 42.1832 32.595 37.4311 32.595ZM85.5968 32.595C84.4786 32.595 83.4161 32.8186 82.438 33.21C83.3325 33.8809 83.9193 34.9152 83.9193 36.0893C83.9193 38.0182 82.3539 39.5836 80.425 39.5836C79.2511 39.5836 78.2168 38.9966 77.5459 38.102C77.1545 39.0805 76.9307 40.1427 76.9307 41.2609C76.9307 46.0411 80.8166 49.8989 85.5968 49.8989C90.3491 49.8989 94.2345 46.0411 94.2345 41.2609C94.2345 36.4807 90.3491 32.595 85.5968 32.595ZM85.5968 32.595C84.4786 32.595 83.4161 32.8186 82.438 33.21C83.3325 33.8809 83.9193 34.9152 83.9193 36.0893C83.9193 38.0182 82.3539 39.5836 80.425 39.5836C79.2511 39.5836 78.2168 38.9966 77.5459 38.102C77.1545 39.0805 76.9307 40.1427 76.9307 41.2609C76.9307 46.0411 80.8166 49.8989 85.5968 49.8989C90.3491 49.8989 94.2345 46.0411 94.2345 41.2609C94.2345 36.4807 90.3491 32.595 85.5968 32.595ZM37.4311 32.595C36.313 32.595 35.2227 32.8186 34.2443 33.21C35.1389 33.853 35.7539 34.9152 35.7539 36.0893C35.7539 38.0182 34.1605 39.5836 32.2595 39.5836C31.0575 39.5836 29.9952 38.9966 29.3802 38.0741C28.9609 39.0525 28.7373 40.1427 28.7373 41.2609C28.7373 46.0411 32.623 49.8989 37.4311 49.8989C42.1832 49.8989 46.0691 46.0411 46.0691 41.2609C46.0691 36.4807 42.1832 32.595 37.4311 32.595ZM61.5 0C27.5911 0 0 27.5911 0 61.5C0 74.3591 3.96955 86.2957 10.7343 96.1636C20.1273 85.2334 32.6789 77.5739 46.7118 74.443C45.2864 71.1723 44.5595 68.5166 44.5595 66.5598C44.5595 61.1366 53.0577 58.7045 61.5 58.7045C69.9143 58.7045 78.4125 61.1366 78.4125 66.5598C78.4125 68.5166 77.7136 71.1723 76.288 74.443C90.3211 77.5739 102.873 85.2334 112.265 96.1636C119.03 86.2957 123 74.3591 123 61.5C123 27.5911 95.4089 0 61.5 0ZM37.4311 58.7325C27.7868 58.7325 19.9316 50.8773 19.9316 41.2609C19.9316 31.6166 27.7868 23.7893 37.4311 23.7893C47.0752 23.7893 54.9027 31.6166 54.9027 41.2609C54.9027 50.8773 47.0752 58.7325 37.4311 58.7325ZM85.5968 58.7325C75.9525 58.7325 68.0973 50.8773 68.0973 41.2609C68.0973 31.6166 75.9525 23.7893 85.5968 23.7893C95.2411 23.7893 103.068 31.6166 103.068 41.2609C103.068 50.8773 95.2411 58.7325 85.5968 58.7325ZM85.5968 32.595C84.4786 32.595 83.4161 32.8186 82.438 33.21C83.3325 33.8809 83.9193 34.9152 83.9193 36.0893C83.9193 38.0182 82.3539 39.5836 80.425 39.5836C79.2511 39.5836 78.2168 38.9966 77.5459 38.102C77.1545 39.0805 76.9307 40.1427 76.9307 41.2609C76.9307 46.0411 80.8166 49.8989 85.5968 49.8989C90.3491 49.8989 94.2345 46.0411 94.2345 41.2609C94.2345 36.4807 90.3491 32.595 85.5968 32.595ZM37.4311 32.595C36.313 32.595 35.2227 32.8186 34.2443 33.21C35.1389 33.853 35.7539 34.9152 35.7539 36.0893C35.7539 38.0182 34.1605 39.5836 32.2595 39.5836C31.0575 39.5836 29.9952 38.9966 29.3802 38.0741C28.9609 39.0525 28.7373 40.1427 28.7373 41.2609C28.7373 46.0411 32.623 49.8989 37.4311 49.8989C42.1832 49.8989 46.0691 46.0411 46.0691 41.2609C46.0691 36.4807 42.1832 32.595 37.4311 32.595ZM85.5968 32.595C84.4786 32.595 83.4161 32.8186 82.438 33.21C83.3325 33.8809 83.9193 34.9152 83.9193 36.0893C83.9193 38.0182 82.3539 39.5836 80.425 39.5836C79.2511 39.5836 78.2168 38.9966 77.5459 38.102C77.1545 39.0805 76.9307 40.1427 76.9307 41.2609C76.9307 46.0411 80.8166 49.8989 85.5968 49.8989C90.3491 49.8989 94.2345 46.0411 94.2345 41.2609C94.2345 36.4807 90.3491 32.595 85.5968 32.595ZM85.5968 32.595C84.4786 32.595 83.4161 32.8186 82.438 33.21C83.3325 33.8809 83.9193 34.9152 83.9193 36.0893C83.9193 38.0182 82.3539 39.5836 80.425 39.5836C79.2511 39.5836 78.2168 38.9966 77.5459 38.102C77.1545 39.0805 76.9307 40.1427 76.9307 41.2609C76.9307 46.0411 80.8166 49.8989 85.5968 49.8989C90.3491 49.8989 94.2345 46.0411 94.2345 41.2609C94.2345 36.4807 90.3491 32.595 85.5968 32.595ZM73.7161 79.6145C72.4302 81.9907 70.8648 84.6464 69.0477 87.4977C67.3984 90.0695 64.575 91.635 61.5 91.635C58.4248 91.635 55.6293 90.0975 53.9802 87.4977C52.135 84.6464 50.5695 81.9907 49.2839 79.6145C35.4743 82.382 23.1182 89.8459 14.145 100.692C25.4386 114.306 42.463 123 61.5 123C80.537 123 97.5611 114.306 108.855 100.692C99.8816 89.818 87.4977 82.382 73.7161 79.6145ZM61.5 61.5C53.5609 61.5 47.355 63.7364 47.355 66.5598C47.355 68.265 48.1377 70.7809 49.5634 73.9677C50.1505 75.2816 50.8493 76.6793 51.688 78.2168C51.688 78.2168 51.688 78.2168 51.688 78.2448C52.9739 80.593 54.5114 83.1927 56.3282 85.9882C57.4466 87.7773 59.4034 88.8395 61.5 88.8395C63.6245 88.8395 65.5534 87.7773 66.6716 85.9882C68.4886 83.1927 70.0261 80.593 71.2841 78.2448C72.1227 76.7073 72.8495 75.2816 73.4364 73.9677C74.8623 70.7809 75.617 68.265 75.617 66.5598C75.617 63.7364 69.4111 61.5 61.5 61.5Z" fill="#CA0D0D"/>
<path d="M94.2345 41.2609C94.2345 46.0411 90.3491 49.8988 85.5968 49.8988C80.8166 49.8988 76.9307 46.0411 76.9307 41.2609C76.9307 40.1427 77.1545 39.0804 77.5459 38.102C78.2168 38.9966 79.2511 39.5836 80.425 39.5836C82.3538 39.5836 83.9193 38.0182 83.9193 36.0893C83.9193 34.9152 83.3325 33.8809 82.4379 33.21C83.4161 32.8186 84.4786 32.595 85.5968 32.595C90.3491 32.595 94.2345 36.4807 94.2345 41.2609Z" fill="#CA0D0D"/>
<path d="M46.0692 41.2609C46.0692 46.0411 42.1833 49.8988 37.4312 49.8988C32.623 49.8988 28.7374 46.0411 28.7374 41.2609C28.7374 40.1427 28.961 39.0525 29.3803 38.0741C29.9953 38.9966 31.0576 39.5836 32.2596 39.5836C34.1605 39.5836 35.754 38.0182 35.754 36.0893C35.754 34.9152 35.139 33.8529 34.2444 33.21C35.2228 32.8186 36.313 32.595 37.4312 32.595C42.1833 32.595 46.0692 36.4807 46.0692 41.2609Z" fill="#CA0D0D"/>
</svg>
